:SAMPLES-PER-SECOND 30
:FULLY-SPECIFIED
:DEGREES
46
root  50.6521 38.4995 -28.4 -140.252 -78.9756 138.63
RightUpLeg  2.25875 -0.660587 -13.3753
RightLeg  49.9658 -1.26864 -1.93887
RightFoot  10.0658 -1.68518 9.21583
RightToes  -1.74624e-010 0 -3.6325e-017
Spine  6.38019 3.08328 -1.32368
Spine1  8.75036 5.03506 -7.6391
HEad  -13.2466 -0.23656 -2.04552
LeftShoulder1  8.17877 -11.7584 -46.7485
LeftArm  -14.7296 21.7165 -27.7539
LeftForeArm  21.3785 -10.6506 -3.7946
LeftHand  -0.244104 0.0205437 5.32207
RightShoulder  6.83129 10.3827 42.8628
RightArm  6.03435 -2.77784 35.5694
RightForeArm  -2.0801 14.5145 7.86137
RightHand  -1.07043 2.18461 -16.5129
LeftUpLeg  -19.7654 14.2686 -12.7137
LeftLeg  21.9237 5.01039 2.57285
LeftFoot  -4.42047 -0.253851 4.65411
LeftToes  -2.54691e-011 4.12133e-011 -4.68171e-012
47
root  49.3983 38.7691 -28.3628 -140.537 -78.8338 138.574
RightUpLeg  -3.83911 0.627801 -12.9263
RightLeg  57.4181 -1.17369 -2.426
RightFoot  12.4896 -1.1365 5.71663
RightToes  -1.74624e-010 0 -3.6325e-017
Spine  6.65691 2.72172 -2.49875
Spine1  8.6346 4.29737 -6.74265
HEad  -12.897 0.616755 -3.24296
LeftShoulder1  8.03192 -11.5666 -46.4861
LeftArm  -14.8636 19.6303 -28.5673
LeftForeArm  21.9706 -12.334 -3.80558
LeftHand  -0.244104 0.0205437 5.32207
RightShoulder  6.89576 10.3898 43.2681
RightArm  7.67573 -5.43782 35.0214
RightForeArm  1.78812 13.4249 8.32583
RightHand  -0.93995 1.56073 -15.7996
LeftUpLeg  -16.5825 15.5561 -12.4271
LeftLeg  20.7574 4.02607 1.81607
LeftFoot  -5.73829 -0.171115 4.20559
LeftToes  -2.54691e-011 4.12133e-011 -4.68171e-012
48
root  48.1266 39.139 -28.3027 -141.513 -79.6666 139.213
RightUpLeg  -8.91745 0.38019 -12.0499
RightLeg  61.1579 -1.2257 -2.93806
RightFoot  9.68863 -0.875525 5.12208
RightToes  -1.74624e-010 0 -3.6325e-017
Spine  7.02946 1.92794 -2.50012
Spine1  8.40614 3.25083 -5.81226
HEad  -12.7924 1.4812 -4.18378
LeftShoulder1  7.96642 -11.4608 -46.4309
LeftArm  -14.3912 17.787 -28.9329
LeftForeArm  22.0952 -15.5146 -3.73808
LeftHand  -0.244104 0.0205437 5.32207
RightShoulder  6.96072 10.407 43.6426
RightArm  9.72987 -8.48896 34.2421
RightForeArm  4.87649 13.6001 8.24472
RightHand  -0.874046 1.24376 -15.3873
LeftUpLeg  -12.5285 14.6823 -10.808
LeftLeg  18.4628 4.54325 0.605551
LeftFoot  -6.78439 -0.100378 3.53606
LeftToes  -2.54691e-011 4.12133e-011 -4.68171e-012
49
root  46.8951 39.4258 -28.2452 -142.819 -80.8554 140.254
RightUpLeg  -13.4024 -0.589574 -11.0109
RightLeg  61.593 -1.63081 -3.7981
RightFoot  6.21828 -0.9896 6.66267
RightToes  -1.74624e-010 0 -3.6325e-017
Spine  7.57539 1.0993 -2.18429
Spine1  8.12533 2.15923 -5.01703
HEad  -12.8489 2.12324 -4.66674
LeftShoulder1  7.98439 -11.4721 -46.5022
LeftArm  -13.6268 16.164 -28.9564
LeftForeArm  22.0387 -19.575 -3.63717
LeftHand  -0.244104 0.0205437 5.32207
RightShoulder  6.89849 10.3226 43.5085
RightArm  10.6722 -11.7043 33.7312
RightForeArm  5.85503 13.8895 8.12281
RightHand  -0.832466 1.01434 -15.1712
LeftUpLeg  -8.66008 11.8604 -8.8165
LeftLeg  16.2778 6.60665 -0.678546
LeftFoot  -8.06268 -0.0316699 2.81049
LeftToes  -2.54691e-011 4.12133e-011 -4.68171e-012
50
root  45.6709 39.6125 -28.1989 -144.97 -81.936 142.165
RightUpLeg  -17.3679 -1.68822 -9.74572
RightLeg  59.1512 -2.44039 -4.87437
RightFoot  4.45014 -0.893471 6.63867
RightToes  -1.74624e-010 0 -3.6325e-017
Spine  8.24799 0.387819 -1.94951
Spine1  7.70765 1.15807 -4.19889
HEad  -12.9492 2.64771 -4.78563
LeftShoulder1  7.97191 -11.4568 -46.4762
LeftArm  -13.7004 14.7871 -28.9169
LeftForeArm  23.1031 -24.0064 -3.901
LeftHand  -0.244104 0.0205437 5.32207
RightShoulder  6.73177 10.1539 42.9509
RightArm  9.8067 -14.6379 33.4483
RightForeArm  6.18924 13.5695 8.18133
RightHand  -0.775802 0.740437 -14.7599
LeftUpLeg  -5.23856 8.6195 -7.1756
LeftLeg  14.4591 9.11881 -1.79638
LeftFoot  -9.14491 0.00590598 2.5868
LeftToes  -2.54691e-011 4.12133e-011 -4.68171e-012
51
root  44.4313 39.7474 -28.1583 -147.681 -82.9389 144.601
RightUpLeg  -20.3956 -3.0563 -8.33603
RightLeg  53.7328 -3.32981 -5.26614
RightFoot  3.33584 -0.65186 5.23784
RightToes  -1.74624e-010 0 -3.6325e-017
Spine  8.96655 -0.284463 -1.65971
Spine1  7.25383 0.233994 -3.31413
HEad  -13.0111 3.11708 -4.71496
LeftShoulder1  7.91614 -11.3941 -46.3416
LeftArm  -14.4578 13.4304 -28.763
LeftForeArm  25.2978 -28.2253 -4.71826
LeftHand  -0.244104 0.0205437 5.32207
RightShoulder  6.57907 9.98596 42.4709
RightArm  7.19079 -17.028 32.9823
RightForeArm  7.66938 12.6881 8.21697
RightHand  -0.717971 0.525502 -14.1572
LeftUpLeg  -1.98725 6.40665 -6.01172
LeftLeg  12.799 10.6059 -2.63221
LeftFoot  -10.1363 0.0327519 2.69096
LeftToes  -2.54691e-011 4.12133e-011 -4.68171e-012
52
root  43.1681 39.7438 -28.1541 -148.234 -83.7121 144.921
RightUpLeg  -22.2178 -4.78633 -7.27628
RightLeg  45.341 -3.61446 -4.24041
RightFoot  2.06536 -0.604996 5.27628
RightToes  -1.74624e-010 0 -3.6325e-017
Spine  9.44168 -0.806258 -1.82783
Spine1  7.035 -0.538626 -2.50472
HEad  -13.1092 3.37609 -4.56128
LeftShoulder1  7.92124 -11.4116 -46.3161
LeftArm  -14.3026 11.755 -28.2703
LeftForeArm  26.9209 -31.7439 -5.45058
LeftHand  -0.244104 0.0205437 5.32207
RightShoulder  6.46245 9.81267 42.2464
RightArm  3.31162 -18.797 32.2383
RightForeArm  9.86462 11.3341 8.09673
RightHand  -0.709533 0.568981 -13.8929
LeftUpLeg  0.758 5.38372 -5.4053
LeftLeg  12.1522 10.8466 -3.10961
LeftFoot  -11.9403 0.0826971 2.38136
LeftToes  -2.54691e-011 4.12133e-011 -4.68171e-012
53
root  41.8294 39.5859 -28.2063 -145.349 -84.048 141.978
RightUpLeg  -22.9298 -6.68141 -6.54595
RightLeg  34.4456 -2.96925 -2.47575
RightFoot  1.29951 -0.673101 6.14494
RightToes  -1.74624e-010 0 -3.6325e-017
Spine  9.28165 -1.05442 -2.77379
Spine1  7.17338 -1.06916 -1.60298
HEad  -13.3889 3.37871 -4.32597
LeftShoulder1  7.99781 -11.5139 -46.4498
LeftArm  -13.4792 9.71732 -27.4925
LeftForeArm  28.0299 -34.2406 -6.00694
LeftHand  -0.244104 0.0205437 5.32207
RightShoulder  6.34867 9.61966 42.1034
RightArm  -0.87578 -19.9227 31.4283
RightForeArm  11.2716 9.42152 7.82504
RightHand  -0.753483 0.805611 -14.1979
LeftUpLeg  2.98664 4.88817 -5.33687
LeftLeg  12.4436 10.7197 -3.34332
LeftFoot  -14.2541 0.130279 1.7384
LeftToes  -2.54691e-011 4.12133e-011 -4.68171e-012
54
root  40.419 39.4235 -28.2752 -142.185 -84.1446 138.86
RightUpLeg  -22.6065 -8.85543 -5.56623
RightLeg  21.5463 -1.47142 -0.812471
RightFoot  1.4639 -0.659868 5.96824
RightToes  -1.74624e-010 0 -3.6325e-017
Spine  8.6639 -1.1509 -3.69642
Spine1  7.61909 -1.44055 -0.435765
HEad  -13.8037 3.2998 -3.9963
LeftShoulder1  8.03986 -11.5671 -46.5316
LeftArm  -12.5117 7.51158 -26.8326
LeftForeArm  28.7598 -35.5039 -6.29218
LeftHand  -0.244104 0.0205437 5.32207
RightShoulder  6.26313 9.47809 41.981
RightArm  -4.15143 -20.5185 30.6733
RightForeArm  11.3905 7.2027 7.31357
RightHand  -0.789707 0.935419 -14.5787
LeftUpLeg  5.52848 4.58294 -5.42127
LeftLeg  12.0201 10.711 -3.62649
LeftFoot  -15.8244 0.158767 1.60866
LeftToes  -2.54691e-011 4.12133e-011 -4.68171e-012
55
root  38.961 39.2573 -28.3393 -139.494 -84.2985 135.995
RightUpLeg  -21.066 -9.81829 -5.26836
RightLeg  7.83612 -1.28822 1.23014
RightFoot  2.244 -0.747903 6.38168
RightToes  -1.74624e-010 0 -3.6325e-017
Spine  8.18676 -1.26092 -4.05691
Spine1  8.15042 -1.76333 0.566859
HEad  -14.1213 3.2135 -3.66166
LeftShoulder1  8.02865 -11.569 -46.4589
LeftArm  -11.6619 5.29685 -26.5011
LeftForeArm  28.947 -35.3213 -6.23489
LeftHand  -0.244104 0.0205437 5.32207
RightShoulder  6.23554 9.43228 41.9413
RightArm  -6.21756 -20.8156 29.9981
RightForeArm  11.0397 5.19715 6.61994
RightHand  -0.794154 0.949704 -14.6268
LeftUpLeg  8.68022 4.62072 -5.35966
LeftLeg  10.9939 10.3828 -3.97375
LeftFoot  -17.1429 0.195312 1.82571
LeftToes  -2.54691e-011 4.12133e-011 -4.68171e-012
